<svg width="130" height="134" viewBox="0 0 130 134" fill="none" xmlns="http://www.w3.org/2000/svg">
<g clip-path="url(#clip0_1_305)">
<path fill-rule="evenodd" clip-rule="evenodd" d="M32.75 0C14.9388 0 0.5 14.9985 0.5 33.5V100.5C0.5 119.002 14.9388 134 32.75 134H97.25C115.061 134 129.5 119.002 129.5 100.5V33.5C129.5 14.9985 115.061 0 97.25 0H32.75ZM59.8265 91.8531L101.048 49.3694C103.635 46.6827 103.635 42.4847 101.048 39.798C98.4618 37.1112 94.4204 37.1112 91.834 39.798L54.9768 78.0837L37.6798 61.6275C35.0934 59.1087 31.052 59.2767 28.6272 61.9634C26.3641 64.6501 26.5257 68.8481 29.1122 71.3669L50.9355 92.021C53.5219 94.5398 57.4016 94.3719 59.8265 91.8531Z" fill="#E7F1A8"/>
</g>
<defs>
<clipPath id="clip0_1_305">
<rect x="0.5" width="129" height="134" rx="64.5" fill="white"/>
</clipPath>
</defs>
</svg>
